<svg width="48" height="49" fill="none" xmlns="http://www.w3.org/2000/svg"><path fill-rule="evenodd" clip-rule="evenodd" d="M0 24.209c0-13.248 10.752-24 24-24s24 10.752 24 24-10.752 24-24 24-24-10.752-24-24zm26.4 9.6v4.8h-4.8v-4.8h4.8zm-12-14.4c0-5.304 4.296-9.6 9.6-9.6 5.304 0 9.6 4.296 9.6 9.6 0 3.079-1.896 4.736-3.742 6.349-1.752 1.53-3.458 3.022-3.458 5.65h-4.8c0-4.37 2.261-6.103 4.25-7.627 1.559-1.196 2.95-2.262 2.95-4.372 0-2.64-2.16-4.8-4.8-4.8-2.64 0-4.8 2.16-4.8 4.8h-4.8z" fill="#1A73E8"/></svg>
