<svg width="107" height="153" viewBox="0 0 107 153" fill="none" xmlns="http://www.w3.org/2000/svg">
<g clip-path="url(#clip0_1_986)">
<path d="M68.9298 66.4135L90.8975 49.6792L100.651 28.6332C94.1574 16.2368 82.9432 6.6918 69.4601 2.45825L49.1876 16.1499L37.6865 40.2385C41.4246 35.7094 47.0317 32.8581 53.3343 32.8581C64.6528 32.8581 73.7024 42.0119 73.7024 53.226C73.6937 58.242 71.8855 62.8667 68.9298 66.4135Z" fill="#4285F4"/>
<path d="M53.3211 0C36.891 0 22.3299 7.38045 12.4893 19.0901L21.8605 34.4421L37.6821 40.2491C37.7777 40.1535 69.4644 2.46884 69.4644 2.46884C64.3441 0.886698 58.9282 0 53.3211 0Z" fill="#1A73E8"/>
<path d="M68.9273 66.416C65.1892 70.8408 59.6256 73.7009 53.323 73.7009C42.0045 73.7009 32.9549 64.547 32.9549 53.3329C32.9549 48.5082 34.9195 43.6922 37.6753 40.2498L14.3341 56.9405L5.31055 78.8124C10.9176 91.0088 20.1672 100.849 29.7123 113.15L54.7313 93.243L68.9273 66.416Z" fill="#FBBC04"/>
<path d="M106.754 53.3335C106.754 44.3796 104.494 36.0168 100.651 28.6364L29.7061 113.151C32.853 117.184 35.9043 121.514 38.9556 126.234C49.7873 142.968 46.5361 153 53.4297 153C60.4191 153 57.3678 142.968 68.1908 126.234C85.9944 98.3899 106.754 85.6979 106.754 53.3335Z" fill="#34A853"/>
<path d="M37.6849 40.2413L12.4921 19.0909C4.7204 28.3404 0 40.3456 0 53.3331C0 63.365 1.96466 71.5365 5.31154 78.8126L37.6849 40.2413Z" fill="#EA4335"/>
</g>
<defs>
<clipPath id="clip0_1_986">
<rect width="106.754" height="153" fill="white"/>
</clipPath>
</defs>
</svg>
