<svg width="48" height="41" viewBox="0 0 48 41" fill="none" xmlns="http://www.w3.org/2000/svg"><path fill-rule="evenodd" clip-rule="evenodd" d="M48 4.94386C46.2339 5.747 44.3361 6.28999 42.3439 6.53394C44.3772 5.28431 45.9388 3.30518 46.6739 0.947247C44.7712 2.10452 42.6638 2.94474 40.4205 3.39771C38.6242 1.43514 36.0649 0.20874 33.2325 0.20874C27.7936 0.20874 23.3844 4.73016 23.3844 10.3066C23.3844 11.0982 23.4715 11.8688 23.6394 12.6078C15.455 12.1867 8.19875 8.1665 3.34169 2.05717C2.49402 3.54858 2.00838 5.28323 2.00838 7.13382C2.00838 10.6371 3.74691 13.728 6.38929 15.539C4.77507 15.4866 3.25653 15.0322 1.92885 14.2758C1.92815 14.318 1.92797 14.3603 1.92797 14.4028C1.92797 19.2954 5.32251 23.3768 9.82754 24.3046C9.00112 24.5352 8.13115 24.6585 7.2331 24.6585C6.5984 24.6585 5.98161 24.5953 5.38027 24.4774C6.63351 28.4893 10.2703 31.4088 14.5796 31.4905C11.2091 34.1988 6.96306 35.813 2.34917 35.813C1.55435 35.813 0.770416 35.7653 0 35.672C4.35826 38.5371 9.53451 40.2087 15.0958 40.2087C33.2095 40.2087 43.1147 24.8218 43.1147 11.4775C43.1147 11.0397 43.105 10.6042 43.0862 10.1712C45.0102 8.74748 46.6797 6.96891 48 4.94386Z" fill="#00ACEE"/></svg>
